<svg width="25" height="25" viewBox="0 0 25 25" fill="none" xmlns="http://www.w3.org/2000/svg">
<path fill-rule="evenodd" clip-rule="evenodd" d="M0 12.4993C0 5.59581 5.59652 0 12.5007 0C19.4028 0 25 5.59581 25 12.4993C25 19.4035 19.4035 25 12.5007 25C5.59652 25 0 19.4035 0 12.4993ZM9.49251 5.58731C10.255 5.55301 10.4979 5.54443 12.4387 5.54443C14.3795 5.54443 14.6224 5.55301 15.3849 5.58731C16.1452 5.62232 16.6647 5.74308 17.1191 5.91958C17.5893 6.10251 17.988 6.34618 18.3853 6.74348C18.7826 7.14079 19.0263 7.53952 19.2092 8.00971C19.3857 8.46417 19.5065 8.98367 19.5415 9.74397C19.5758 10.5064 19.5844 10.7494 19.5844 12.6901C19.5844 14.6309 19.5758 14.8739 19.5415 15.6363C19.5065 16.3966 19.3857 16.9161 19.2092 17.3706C19.0263 17.8408 18.7826 18.2395 18.3853 18.6368C17.988 19.0341 17.5893 19.2778 17.1191 19.4607C16.6647 19.6372 16.1452 19.758 15.3849 19.793C14.6224 19.828 14.3795 19.8359 12.4387 19.8359C10.4979 19.8359 10.255 19.828 9.49251 19.793C8.7322 19.758 8.21271 19.6372 7.75824 19.4607C7.28805 19.2778 6.88932 19.0341 6.49202 18.6368C6.09472 18.2395 5.85105 17.8408 5.66812 17.3706C5.49162 16.9161 5.37086 16.3966 5.33584 15.6363C5.30083 14.8739 5.29297 14.6309 5.29297 12.6901C5.29297 10.7494 5.30083 10.5064 5.33584 9.74397C5.37086 8.98367 5.49162 8.46417 5.66812 8.00971C5.85105 7.53952 6.09472 7.14079 6.49202 6.74348C6.88932 6.34618 7.28805 6.10251 7.75824 5.91958C8.21271 5.74308 8.7322 5.62232 9.49251 5.58731Z" fill="white"/>
<path fill-rule="evenodd" clip-rule="evenodd" d="M12.4352 6.8335C14.3431 6.8335 14.5689 6.84064 15.3228 6.87494C16.0195 6.9071 16.3975 7.02286 16.6498 7.12075C16.9827 7.25081 17.2214 7.40587 17.4715 7.65525C17.7209 7.90535 17.876 8.14402 18.006 8.47701C18.1039 8.72925 18.2197 9.10726 18.2518 9.80397C18.2861 10.5578 18.2933 10.7836 18.2933 12.6916C18.2933 14.5995 18.2861 14.8253 18.2518 15.5791C18.2197 16.2758 18.1039 16.6539 18.006 16.9061C17.876 17.2391 17.7209 17.4778 17.4715 17.7279C17.2214 17.9772 16.9827 18.1323 16.6498 18.2624C16.3975 18.3603 16.0195 18.476 15.3228 18.5082C14.5696 18.5425 14.3431 18.5496 12.4352 18.5496C10.5273 18.5496 10.3008 18.5425 9.54762 18.5082C8.85092 18.476 8.47291 18.3603 8.22066 18.2624C7.88767 18.1323 7.64901 17.9772 7.39891 17.7279C7.14952 17.4778 6.99446 17.2391 6.86441 16.9061C6.76651 16.6539 6.65075 16.2758 6.61859 15.5791C6.58429 14.8253 6.57715 14.5995 6.57715 12.6916C6.57715 10.7836 6.58429 10.5578 6.61859 9.80397C6.65075 9.10726 6.76651 8.72925 6.86441 8.47701C6.99446 8.14402 7.14952 7.90535 7.39891 7.65525C7.64901 7.40587 7.88767 7.25081 8.22066 7.12075C8.47291 7.02286 8.85092 6.9071 9.54762 6.87494C10.3015 6.84064 10.5273 6.8335 12.4352 6.8335ZM12.433 9.02051C10.4065 9.02051 8.76367 10.6633 8.76367 12.6898C8.76367 14.7164 10.4065 16.3592 12.433 16.3592C14.4595 16.3592 16.1023 14.7164 16.1023 12.6898C16.1023 10.6633 14.4595 9.02051 12.433 9.02051ZM10.0527 12.692C10.0527 14.0075 11.1189 15.0736 12.4344 15.0736C13.7499 15.0736 14.8161 14.0075 14.8161 12.692C14.8161 11.3764 13.7499 10.3096 12.4344 10.3096C11.1189 10.3096 10.0527 11.3764 10.0527 12.692Z" fill="white"/>
</svg>
