<svg width="26" height="25" viewBox="0 0 26 25" fill="none" xmlns="http://www.w3.org/2000/svg">
<path fill-rule="evenodd" clip-rule="evenodd" d="M0 12.4993C0 5.59581 5.61668 0 12.5457 0C19.4726 0 25.09 5.59581 25.09 12.4993C25.09 19.4035 19.4734 25 12.5457 25C5.61668 25 0 19.4035 0 12.4993ZM9.46182 9.98331H6.87057V18.3327H9.46182V9.98331ZM9.66921 7.33723C9.66921 8.16823 8.99466 8.84178 8.16729 8.84178C7.33556 8.84178 6.66319 8.16823 6.66537 7.33723C6.66537 7.13965 6.70422 6.94401 6.7797 6.76147C6.85518 6.57893 6.96581 6.41306 7.10527 6.27335C7.24474 6.13364 7.41031 6.02282 7.59253 5.94721C7.77475 5.8716 7.97006 5.83268 8.16729 5.83268C8.36452 5.83268 8.55983 5.8716 8.74205 5.94721C8.92427 6.02282 9.08984 6.13364 9.22931 6.27335C9.36877 6.41306 9.47941 6.57893 9.55488 6.76147C9.63036 6.94401 9.66921 7.13965 9.66921 7.33723ZM15.2294 12.0586C13.8824 12.0586 13.6751 13.1127 13.6751 14.2017V18.3327H11.086V9.98331H13.5725V11.1248H13.6074C13.9545 10.4688 14.7993 9.77556 16.0589 9.77556C18.6807 9.77556 19.1654 11.5054 19.1654 13.7534V18.3327H16.5763V14.2717C16.5763 13.3029 16.5567 12.0586 15.2294 12.0586Z" fill="white"/>
</svg>
