<svg width="30" height="18" viewBox="0 0 30 18" fill="none" xmlns="http://www.w3.org/2000/svg">
<path d="M28.488 18H1.51138C0.676758 18 0 17.3348 0 16.5151V1.48425C0 0.664608 0.676758 0 1.51138 0H28.488C29.3226 0 29.9994 0.664608 29.9994 1.48425V16.5151C30 17.3348 29.3232 18 28.488 18Z" fill="#4CCAB8"/>
<path d="M25.199 8.7364L22.9052 6.48378C22.8486 6.42819 22.7813 6.40039 22.704 6.40039C22.6266 6.40039 22.5593 6.42819 22.5027 6.48378C22.4461 6.53937 22.4178 6.60546 22.4178 6.68205V7.80805H21.4146C19.2849 7.80805 17.9786 8.39916 17.4949 9.58075C17.3364 9.97359 17.2578 10.4622 17.2578 11.0459C17.2578 11.5326 17.4478 12.1941 17.827 13.0298C17.8358 13.0502 17.8515 13.0854 17.8742 13.1354C17.8968 13.1854 17.917 13.2293 17.9346 13.2676C17.9528 13.3059 17.9717 13.338 17.9931 13.3646C18.0289 13.4146 18.0704 13.4393 18.1182 13.4393C18.1629 13.4393 18.1981 13.4245 18.2233 13.3955C18.2484 13.3664 18.261 13.3294 18.261 13.2855C18.261 13.259 18.2572 13.22 18.2497 13.1688C18.2421 13.1175 18.2384 13.0829 18.2384 13.0656C18.2233 12.8661 18.2157 12.6858 18.2157 12.5245C18.2157 12.2281 18.2421 11.9631 18.2943 11.7284C18.3465 11.4937 18.4189 11.2904 18.5113 11.1194C18.6038 10.9476 18.7233 10.7994 18.8698 10.6753C19.0164 10.5505 19.1736 10.4486 19.3422 10.3695C19.5107 10.2904 19.7095 10.2281 19.9378 10.1824C20.1661 10.1367 20.3963 10.1051 20.6278 10.0879C20.8592 10.0699 21.1215 10.0613 21.414 10.0613H22.4172V11.1873C22.4172 11.2633 22.4455 11.3294 22.5021 11.385C22.5587 11.4405 22.626 11.4683 22.7033 11.4683C22.7807 11.4683 22.848 11.4405 22.9052 11.385L25.199 9.13233C25.2556 9.07674 25.2839 9.01065 25.2839 8.93467C25.2846 8.85808 25.2563 8.79261 25.199 8.7364Z" fill="white"/>
<path fill-rule="evenodd" clip-rule="evenodd" d="M15.0074 6.57699C15.4602 6.25518 15.8539 5.85555 16.1634 5.3991C15.7451 5.58007 15.3005 5.70299 14.8338 5.75734C15.3118 5.47692 15.6791 5.03097 15.8527 4.49978C15.4036 4.7592 14.9099 4.94944 14.3797 5.05259C13.9583 4.61034 13.357 4.33301 12.689 4.33301C11.4097 4.33301 10.3732 5.35339 10.3732 6.6091C10.3732 6.78699 10.3933 6.96179 10.4348 7.12547C8.50584 7.03282 6.79885 6.12547 5.65729 4.75055C5.45854 5.08532 5.34407 5.47692 5.34407 5.89385C5.34407 6.68508 5.75352 7.37872 6.3743 7.78761C5.99315 7.77464 5.63779 7.67396 5.32457 7.50348V7.53375C5.32457 8.63381 6.12209 9.5529 7.18503 9.76229C6.99005 9.81355 6.78312 9.84196 6.57305 9.84196C6.42273 9.84196 6.27996 9.82776 6.13907 9.8012C6.43405 10.7036 7.28755 11.3639 8.30017 11.3812C7.50894 11.9908 6.50953 12.3546 5.42395 12.3546C5.23778 12.3546 5.05349 12.346 4.87109 12.3237C5.89881 12.9704 7.11458 13.3472 8.42344 13.3472C12.6853 13.3472 15.0155 9.87779 15.0155 6.87347C15.0143 6.77464 15.0124 6.67643 15.0074 6.57699Z" fill="white"/>
</svg>
