<svg width="30" height="18" viewBox="0 0 30 18" fill="none" xmlns="http://www.w3.org/2000/svg">
<path d="M28.488 18H1.51138C0.676758 18 0 17.3348 0 16.5151V1.48425C0 0.664608 0.676758 0 1.51138 0H28.488C29.3226 0 29.9994 0.664608 29.9994 1.48425V16.5151C30 17.3348 29.3232 18 28.488 18Z" fill="#4CCAB8"/>
<path d="M25.1956 8.73616L22.9018 6.48353C22.8452 6.42794 22.7779 6.40015 22.7005 6.40015C22.6232 6.40015 22.5559 6.42794 22.4993 6.48353C22.4427 6.53912 22.4144 6.60521 22.4144 6.6818V7.80781H21.4112C19.2815 7.80781 17.9752 8.39891 17.4915 9.58051C17.333 9.97334 17.2544 10.4619 17.2544 11.0456C17.2544 11.5323 17.4443 12.1939 17.8236 13.0296C17.8324 13.0499 17.8481 13.0851 17.8708 13.1352C17.8934 13.1852 17.9135 13.2291 17.9312 13.2674C17.9494 13.3057 17.9683 13.3378 17.9896 13.3643C18.0255 13.4144 18.067 13.4391 18.1148 13.4391C18.1595 13.4391 18.1947 13.4242 18.2198 13.3952C18.245 13.3662 18.2576 13.3291 18.2576 13.2853C18.2576 13.2587 18.2538 13.2198 18.2463 13.1685C18.2387 13.1173 18.2349 13.0827 18.2349 13.0654C18.2198 12.8659 18.2123 12.6855 18.2123 12.5243C18.2123 12.2278 18.2387 11.9628 18.2909 11.7281C18.3431 11.4934 18.4155 11.2902 18.5079 11.1191C18.6004 10.9474 18.7199 10.7992 18.8664 10.675C19.013 10.5502 19.1702 10.4483 19.3388 10.3693C19.5073 10.2902 19.7061 10.2278 19.9344 10.1821C20.1627 10.1364 20.3929 10.1049 20.6244 10.0876C20.8558 10.0697 21.1181 10.0611 21.4105 10.0611H22.4137V11.1871C22.4137 11.263 22.442 11.3291 22.4986 11.3847C22.5552 11.4403 22.6225 11.4681 22.6999 11.4681C22.7773 11.4681 22.8446 11.4403 22.9018 11.3847L25.1956 9.13208C25.2522 9.07649 25.2805 9.0104 25.2805 8.93443C25.2812 8.85784 25.2528 8.79237 25.1956 8.73616Z" fill="white"/>
<path fill-rule="evenodd" clip-rule="evenodd" d="M7.51678 4.45142C6.82241 4.45142 6.36768 4.89984 6.36768 5.48786C6.36768 6.06352 6.80858 6.52615 7.49037 6.52615H7.50358C8.21241 6.52615 8.65394 6.06414 8.65394 5.48786C8.6401 4.89984 8.21178 4.45142 7.51678 4.45142Z" fill="white"/>
<path fill-rule="evenodd" clip-rule="evenodd" d="M11.6747 8.19507V8.2152H11.6609L11.6678 8.20576L11.6747 8.19507Z" fill="white"/>
<path fill-rule="evenodd" clip-rule="evenodd" d="M13.5074 7.20386C12.43 7.20386 11.947 7.78508 11.6766 8.19459V7.3453H9.64502C9.67206 7.90738 9.64502 13.3459 9.64502 13.3459H11.6766V9.99446C11.6766 9.81349 11.6898 9.63745 11.7426 9.50774C11.8904 9.15073 12.225 8.77766 12.786 8.77766C13.5219 8.77766 13.815 9.32924 13.815 10.1353V13.3459H15.8472V9.9049C15.8472 8.06179 14.8434 7.20386 13.5074 7.20386Z" fill="white"/>
<path d="M8.5203 7.3457H6.48877V13.3463H8.5203V7.3457Z" fill="white"/>
</svg>
