<svg width="30" height="18" viewBox="0 0 30 18" fill="none" xmlns="http://www.w3.org/2000/svg">
<path d="M28.488 18H1.51138C0.676758 18 0 17.3348 0 16.5151V1.48425C0 0.664608 0.676758 0 1.51138 0H28.488C29.3226 0 29.9994 0.664608 29.9994 1.48425V16.5151C30 17.3348 29.3232 18 28.488 18Z" fill="#4CCAB8"/>
<path d="M22.4097 8.73689L20.1159 6.48426C20.0593 6.42867 19.992 6.40088 19.9146 6.40088C19.8373 6.40088 19.77 6.42867 19.7134 6.48426C19.6568 6.53985 19.6285 6.60594 19.6285 6.68253V7.80854H18.6253C16.4956 7.80854 15.1893 8.39965 14.7056 9.58124C14.5471 9.97408 14.4685 10.4626 14.4685 11.0463C14.4685 11.5331 14.6585 12.1946 15.0377 13.0303C15.0465 13.0507 15.0622 13.0859 15.0849 13.1359C15.1075 13.1859 15.1277 13.2298 15.1453 13.2681C15.1635 13.3064 15.1824 13.3385 15.2038 13.3651C15.2396 13.4151 15.2811 13.4398 15.3289 13.4398C15.3736 13.4398 15.4088 13.425 15.434 13.3959C15.4591 13.3669 15.4717 13.3299 15.4717 13.286C15.4717 13.2594 15.4679 13.2205 15.4604 13.1693C15.4528 13.118 15.4491 13.0834 15.4491 13.0661C15.434 12.8666 15.4264 12.6862 15.4264 12.525C15.4264 12.2286 15.4528 11.9636 15.505 11.7289C15.5572 11.4942 15.6296 11.2909 15.722 11.1198C15.8145 10.9481 15.934 10.7999 16.0805 10.6757C16.2271 10.551 16.3843 10.4491 16.5529 10.37C16.7214 10.2909 16.9202 10.2286 17.1485 10.1828C17.3768 10.1371 17.607 10.1056 17.8385 10.0883C18.0699 10.0704 18.3322 10.0618 18.6247 10.0618H19.6278V11.1878C19.6278 11.2638 19.6561 11.3299 19.7128 11.3854C19.7694 11.441 19.8367 11.4688 19.914 11.4688C19.9914 11.4688 20.0587 11.441 20.1159 11.3854L22.4097 9.13281C22.4663 9.07722 22.4946 9.01113 22.4946 8.93516C22.4946 8.85857 22.4663 8.7931 22.4097 8.73689Z" fill="white"/>
<path fill-rule="evenodd" clip-rule="evenodd" d="M12.2471 8.8327H10.9338V13.4399H8.98153V8.8327H8.05444V7.20577H8.98153V6.15141C8.98153 5.39724 9.3501 4.21997 10.9514 4.21997L12.3936 4.22553V5.80428H11.3451C11.176 5.80428 10.9332 5.88828 10.9332 6.24838V7.20453H12.4188L12.2471 8.8327Z" fill="white"/>
</svg>
