<svg width="25" height="25" viewBox="0 0 25 25" fill="none" xmlns="http://www.w3.org/2000/svg">
<path fill-rule="evenodd" clip-rule="evenodd" d="M18.7997 9.9774C19.415 9.53143 19.9509 8.97828 20.3713 8.34632C19.8029 8.59731 19.1979 8.7674 18.5632 8.84276C19.2131 8.45418 19.7124 7.83673 19.9488 7.10105C19.3383 7.45991 18.6669 7.72334 17.9458 7.86647C17.3726 7.25386 16.5553 6.87012 15.6468 6.87012C13.9071 6.87012 12.4973 8.28271 12.4973 10.0217C12.4973 10.2678 12.5243 10.5098 12.581 10.7366C9.95768 10.608 7.63655 9.35235 6.08429 7.44815C5.81394 7.91141 5.65837 8.45418 5.65837 9.03083C5.65837 10.1261 6.21497 11.0871 7.0592 11.6534C6.54132 11.6354 6.05732 11.4965 5.6314 11.26V11.3022C5.6314 12.8254 6.71626 14.0976 8.16134 14.388C7.89583 14.4592 7.61511 14.4987 7.32955 14.4987C7.12489 14.4987 6.9306 14.4786 6.73907 14.442C7.1401 15.6914 8.30101 16.6054 9.67765 16.6296C8.60178 17.4739 7.24312 17.9772 5.76623 17.9772C5.51317 17.9772 5.26287 17.9655 5.01465 17.9344C6.41203 18.8298 8.06523 19.3511 9.84497 19.3511C15.6398 19.3511 18.8094 14.5471 18.8094 10.3867C18.8094 10.2512 18.8066 10.115 18.7997 9.9774ZM12.4983 0C19.4056 0 24.9993 5.59919 24.9993 12.501C24.9993 19.4063 19.4056 25 12.4983 25C5.59504 25 0 19.4063 0 12.501C0 5.59919 5.59504 0 12.4983 0Z" fill="white"/>
</svg>
