<svg width="12" height="12" viewBox="0 0 12 12" fill="none" xmlns="http://www.w3.org/2000/svg"><path fill-rule="evenodd" clip-rule="evenodd" d="M10.957 12c.458 0 .83-.385.83-.86V.86c0-.474-.372-.86-.83-.86H1.389C.93 0 .559.386.559.86v10.28c0 .475.371.86.83.86h9.568zM6.598 5.394c.225-.37.629-.894 1.528-.894 1.116 0 1.953.775 1.953 2.438v3.107H8.383V7.146c0-.727-.245-1.225-.859-1.225-.468 0-.748.336-.87.659a1.316 1.316 0 0 0-.056.44v3.025H4.902s.023-4.91 0-5.417h1.696v.766zm0 0a.13.13 0 0 1-.012.018h.012v-.018zM3.123 2.016c-.58 0-.959.405-.959.935 0 .52.368.937.937.937h.011c.592 0 .96-.417.96-.937-.011-.53-.368-.935-.949-.935zm.839 8.029H2.266V4.628h1.696v5.417z" fill="#333"/></svg>