<svg width="2798" height="89" viewBox="0 0 2798 89" xmlns="http://www.w3.org/2000/svg"><title>bg/background-pattern-e</title><path d="M0 52.308c3.878.148 5.478-1.677 5.987-4.142-.066-2.53 1.685-4.377 3.903-4.435a4.02 4.02 0 0 1 4.122 3.917c.064 2.438 2.122 4.487 4.71 4.42 2.37-.063 3.97-1.887 4.48-4.353l-.2-7.586c-.058-2.222 1.45-4.063 3.669-4.121 2.218-.058 3.821 1.702 3.88 3.923.072 2.802 2.42 4.863 5.008 4.795 2.03-.053 4.193-.867 4.675-4.379l-.16-6.08c-.06-2.3 1.61-4.21 3.908-4.27 2.298-.06 4.065 1.76 4.126 4.06.08 3.06 2.137 5.11 4.725 5.042 2.37-.062 3.97-1.887 4.48-4.352l-.207-7.897a4.02 4.02 0 0 1 3.911-4.128 4.02 4.02 0 0 1 4.122 3.917l.225 8.586c.068 2.591 2.125 4.64 4.713 4.572 2.37-.062 3.97-1.886 4.48-4.352l-.222-8.471a4.02 4.02 0 0 1 3.911-4.128 4.02 4.02 0 0 1 4.122 3.917l-.046-1.758c.068 2.592 2.125 4.64 4.713 4.573 2.37-.062 3.97-1.886 4.48-4.352l-.234-8.927a4.02 4.02 0 0 1 3.911-4.127 4.02 4.02 0 0 1 4.122 3.917l.417 15.936c.068 2.591 2.126 4.64 4.713 4.572 2.37-.062 3.97-1.886 4.48-4.352l-.038-1.457a4.02 4.02 0 0 1 3.911-4.127 4.02 4.02 0 0 1 4.122 3.917l.131 5.018c.068 2.592 2.126 4.64 4.714 4.573 2.37-.062 3.97-1.887 4.48-4.352l-.114-4.33a4.02 4.02 0 0 1 3.911-4.128 4.02 4.02 0 0 1 4.122 3.918l.071 2.72c.068 2.59 2.125 4.64 4.713 4.572 2.37-.062 3.97-1.887 4.48-4.352l-.256-9.788a4.02 4.02 0 0 1 3.91-4.128 4.02 4.02 0 0 1 4.123 3.917l.41 15.648c.067 2.592 2.125 4.64 4.713 4.573 2.37-.062 3.97-1.887 4.48-4.352l-.22-8.352a4.02 4.02 0 0 1 3.912-4.128 4.02 4.02 0 0 1 4.122 3.917l.432 16.51c.068 2.592 2.125 4.641 4.713 4.573 2.37-.062 3.97-1.886 4.48-4.352l-.32-12.183c-.058-2.221 1.45-4.063 3.67-4.121 2.217-.058 3.82 1.702 3.878 3.923.074 2.802 2.42 4.863 5.009 4.795 2.03-.053 4.193-.867 4.675-4.379l-.16-6.08c-.06-2.3 1.61-4.21 3.908-4.27 2.298-.06 4.066 1.76 4.126 4.06.08 3.06 2.137 5.11 4.725 5.042 2.37-.062 3.97-1.886 4.48-4.352l-.207-7.897a4.02 4.02 0 0 1 3.911-4.128 4.02 4.02 0 0 1 4.122 3.918l.225 8.585c.068 2.591 2.125 4.64 4.713 4.572 2.37-.062 3.97-1.886 4.48-4.352l-.222-8.471a4.02 4.02 0 0 1 3.911-4.128 4.02 4.02 0 0 1 4.122 3.917l-.046-1.757c.068 2.591 2.125 4.64 4.713 4.572 2.37-.062 3.97-1.886 4.48-4.352l-.234-8.926a4.02 4.02 0 0 1 3.911-4.128 4.02 4.02 0 0 1 4.122 3.917l.417 15.936c.068 2.591 2.126 4.64 4.714 4.572 2.37-.062 3.97-1.886 4.48-4.352l-.039-1.456a4.02 4.02 0 0 1 3.911-4.128 4.02 4.02 0 0 1 4.122 3.917l.131 5.018c.068 2.592 2.126 4.64 4.714 4.573 2.37-.062 3.97-1.886 4.48-4.352l-.114-4.33a4.02 4.02 0 0 1 3.911-4.127 4.02 4.02 0 0 1 4.122 3.917l.071 2.72c.068 2.59 2.126 4.64 4.713 4.572 2.37-.062 3.97-1.886 4.48-4.352l-.256-9.788a4.02 4.02 0 0 1 3.91-4.128 4.02 4.02 0 0 1 4.123 3.918l.41 15.647c.067 2.592 2.125 4.64 4.713 4.573 2.37-.062 3.97-1.886 4.48-4.352l-.22-8.352a4.02 4.02 0 0 1 3.912-4.128 4.02 4.02 0 0 1 4.122 3.917l.312 11.914c.067 2.591 2.125 4.64 4.713 4.573 2.37-.063 3.97-1.887 4.48-4.353l-.2-7.586c-.057-2.221 1.45-4.063 3.67-4.12 2.217-.059 3.82 1.701 3.878 3.923.074 2.8 2.421 4.862 5.009 4.795 2.03-.054 4.193-.868 4.675-4.38l-.16-6.079c-.06-2.3 1.61-4.211 3.908-4.271 2.298-.06 4.066 1.76 4.126 4.06.08 3.061 2.138 5.11 4.725 5.042 2.37-.062 3.97-1.886 4.48-4.352l-.207-7.897a4.02 4.02 0 0 1 3.911-4.127 4.02 4.02 0 0 1 4.122 3.917l.225 8.585c.068 2.591 2.125 4.64 4.713 4.573 2.37-.062 3.97-1.887 4.48-4.353l-.222-8.471a4.02 4.02 0 0 1 3.911-4.128 4.02 4.02 0 0 1 4.122 3.918l-.046-1.758c.068 2.591 2.125 4.64 4.713 4.572 2.37-.062 3.97-1.886 4.48-4.352l-.234-8.926a4.02 4.02 0 0 1 3.911-4.128 4.02 4.02 0 0 1 4.122 3.917l.417 15.936c.068 2.592 2.126 4.64 4.714 4.573 2.37-.062 3.97-1.887 4.48-4.353l-.039-1.456a4.02 4.02 0 0 1 3.911-4.128 4.02 4.02 0 0 1 4.122 3.917l.132 5.019c.067 2.591 2.125 4.64 4.713 4.572 2.37-.062 3.97-1.886 4.48-4.352l-.114-4.33a4.02 4.02 0 0 1 3.911-4.127 4.02 4.02 0 0 1 4.122 3.917l.071 2.72c.068 2.591 2.126 4.64 4.714 4.572 2.37-.062 3.97-1.886 4.479-4.352l-.256-9.788a4.02 4.02 0 0 1 3.911-4.127 4.02 4.02 0 0 1 4.122 3.917l.41 15.648c.067 2.591 2.125 4.64 4.713 4.572 2.37-.062 3.97-1.886 4.48-4.352l-.22-8.352a4.02 4.02 0 0 1 3.912-4.127 4.02 4.02 0 0 1 4.122 3.917l.432 16.51c.068 2.591 2.125 4.64 4.713 4.573 2.37-.062 3.97-1.887 4.48-4.353l-.32-12.183c-.057-2.221 1.451-4.063 3.67-4.12 2.218-.059 3.82 1.701 3.878 3.923.074 2.801 2.421 4.862 5.009 4.795 2.03-.053 4.193-.867 4.675-4.38l-.16-6.079c-.06-2.3 1.61-4.21 3.908-4.271 2.298-.06 4.066 1.76 4.126 4.06.08 3.061 2.138 5.11 4.726 5.042 2.37-.062 3.97-1.886 4.48-4.352l-.208-7.897a4.02 4.02 0 0 1 3.911-4.127 4.02 4.02 0 0 1 4.122 3.917l.225 8.585c.068 2.592 2.126 4.64 4.713 4.573 2.37-.062 3.97-1.887 4.48-4.352l-.222-8.472a4.02 4.02 0 0 1 3.911-4.127 4.02 4.02 0 0 1 4.122 3.917l-.046-1.758c.068 2.591 2.126 4.64 4.713 4.573 2.37-.062 3.97-1.887 4.48-4.353l-.234-8.926A4.02 4.02 0 0 1 559.964 0a4.02 4.02 0 0 1 4.122 3.918l.418 15.935c.067 2.592 2.125 4.64 4.713 4.573 2.37-.062 3.97-1.887 4.48-4.352l-.039-1.457a4.02 4.02 0 0 1 3.911-4.127 4.02 4.02 0 0 1 4.122 3.917l.132 5.018c.068 2.591 2.125 4.64 4.713 4.572 2.37-.062 3.97-1.886 4.48-4.352l-.114-4.33a4.02 4.02 0 0 1 3.911-4.127 4.02 4.02 0 0 1 4.122 3.917l.071 2.72c.068 2.591 2.126 4.64 4.714 4.572 2.37-.062 3.97-1.886 4.48-4.352l-.257-9.788a4.02 4.02 0 0 1 3.911-4.127 4.02 4.02 0 0 1 4.122 3.917l.41 15.648c.068 2.591 2.125 4.64 4.713 4.572 2.37-.062 3.97-1.886 4.48-4.352l-.22-8.352a4.02 4.02 0 0 1 3.912-4.127 4.02 4.02 0 0 1 4.122 3.917l.432 16.51c.068 2.592 2.126 4.64 4.713 4.573 2.37-.062 3.97-1.887 4.48-4.352l-.196-7.49a4.02 4.02 0 0 1 3.911-4.127 4.02 4.02 0 0 1 4.122 3.917l.35 13.349c.067 2.592 2.125 4.64 4.713 4.573 2.37-.062 3.97-1.887 4.48-4.353l-.024-.882a4.02 4.02 0 0 1 3.911-4.127 4.02 4.02 0 0 1 4.122 3.917l.237 9.04c.068 2.592 2.125 4.64 4.713 4.573 2.37-.062 3.97-1.886 4.48-4.352l-.023-.882a4.02 4.02 0 0 1 3.91-4.128 4.02 4.02 0 0 1 4.123 3.917l.161 6.168c.068 2.591 2.126 4.64 4.713 4.572 2.37-.062 3.97-1.886 4.48-4.352l-.023-.882c-.058-2.221 1.693-4.07 4.662-4.127a4.02 4.02 0 0 1 3.912 4.127l-.024.882c.51 2.466 2.11 4.29 4.48 4.352 2.588.068 4.645-1.98 4.713-4.572l.162-6.168a4.02 4.02 0 0 1 4.122-3.917 4.02 4.02 0 0 1 3.91 4.128l-.022.882c.51 2.466 2.11 4.29 4.48 4.352 2.587.068 4.645-1.981 4.712-4.573l.237-9.04a4.02 4.02 0 0 1 4.122-3.917 4.02 4.02 0 0 1 3.911 4.127l-.023.882c.51 2.466 2.11 4.29 4.48 4.353 2.588.067 4.645-1.981 4.713-4.573l.35-13.35a4.02 4.02 0 0 1 4.121-3.916 4.02 4.02 0 0 1 3.912 4.127l-.197 7.49c.51 2.465 2.11 4.29 4.48 4.352 2.588.067 4.645-1.981 4.713-4.573l.433-16.51a4.02 4.02 0 0 1 4.121-3.917 4.02 4.02 0 0 1 3.912 4.127l-.219 8.352c.51 2.466 2.11 4.29 4.48 4.352 2.587.068 4.645-1.98 4.713-4.572l.41-15.648a4.02 4.02 0 0 1 4.121-3.917 4.02 4.02 0 0 1 3.912 4.127l-.257 9.788c.51 2.466 2.11 4.29 4.48 4.352 2.588.068 4.645-1.98 4.713-4.572l.071-2.72a4.02 4.02 0 0 1 4.122-3.917 4.02 4.02 0 0 1 3.911 4.127l-.113 4.33c.51 2.466 2.11 4.29 4.48 4.352 2.587.068 4.645-1.98 4.713-4.572l.131-5.018a4.02 4.02 0 0 1 4.122-3.917 4.02 4.02 0 0 1 3.911 4.127l-.038 1.457c.51 2.465 2.11 4.29 4.48 4.352 2.587.068 4.645-1.981 4.713-4.573l.417-15.935A4.02 4.02 0 0 1 838.965 0a4.02 4.02 0 0 1 3.911 4.128l-.234 8.926c.51 2.466 2.11 4.29 4.48 4.353 2.588.067 4.645-1.982 4.713-4.573l-.046 1.758a4.02 4.02 0 0 1 4.122-3.917 4.02 4.02 0 0 1 3.911 4.127l-.222 8.472c.51 2.465 2.11 4.29 4.48 4.352 2.588.068 4.645-1.981 4.713-4.573l.225-8.585a4.02 4.02 0 0 1 4.122-3.917 4.02 4.02 0 0 1 3.911 4.127l-.207 7.897c.51 2.466 2.11 4.29 4.48 4.352 2.588.068 4.645-1.98 4.725-5.041.06-2.3 1.829-4.121 4.126-4.061 2.298.06 3.968 1.97 3.907 4.271l-.159 6.08c.483 3.512 2.645 4.326 4.675 4.379a4.92 4.92 0 0 0 5.009-4.795c.058-2.222 1.66-3.982 3.88-3.924 2.217.058 3.726 1.9 3.668 4.121l-.32 12.183c.51 2.466 2.11 4.29 4.48 4.353 2.588.067 4.645-1.982 4.713-4.573l.433-16.51a4.02 4.02 0 0 1 4.122-3.917 4.02 4.02 0 0 1 3.91 4.127l-.218 8.352c.51 2.466 2.11 4.29 4.48 4.352 2.587.068 4.645-1.981 4.713-4.572l.41-15.648a4.02 4.02 0 0 1 4.121-3.917 4.02 4.02 0 0 1 3.912 4.127l-.257 9.788c.51 2.466 2.11 4.29 4.48 4.352 2.588.068 4.645-1.981 4.713-4.572l.071-2.72a4.02 4.02 0 0 1 4.122-3.917 4.02 4.02 0 0 1 3.911 4.127l-.113 4.33c.51 2.466 2.11 4.29 4.48 4.352 2.587.068 4.645-1.981 4.713-4.572l.131-5.019a4.02 4.02 0 0 1 4.122-3.917 4.02 4.02 0 0 1 3.911 4.128l-.038 1.456c.51 2.466 2.11 4.29 4.48 4.353 2.588.067 4.645-1.981 4.713-4.573l.417-15.936a4.02 4.02 0 0 1 4.122-3.917 4.02 4.02 0 0 1 3.911 4.128l-.233 8.926c.51 2.466 2.11 4.29 4.48 4.352 2.587.068 4.644-1.98 4.712-4.572l-.046 1.758a4.02 4.02 0 0 1 4.122-3.918 4.02 4.02 0 0 1 3.911 4.128l-.221 8.471c.51 2.466 2.11 4.29 4.48 4.353 2.587.067 4.644-1.982 4.712-4.573l.225-8.585a4.02 4.02 0 0 1 4.122-3.917 4.02 4.02 0 0 1 3.911 4.127l-.207 7.897c.51 2.466 2.11 4.29 4.48 4.352 2.588.068 4.645-1.981 4.726-5.041.06-2.301 1.828-4.121 4.125-4.061 2.298.06 3.968 1.97 3.908 4.271l-.16 6.08c.483 3.511 2.645 4.325 4.676 4.379 2.587.067 4.935-1.994 5.008-4.795.058-2.222 1.66-3.982 3.88-3.924 2.217.058 3.726 1.9 3.668 4.121l-.199 7.586c.51 2.466 2.11 4.29 4.48 4.353 2.587.067 4.645-1.982 4.713-4.573l.312-11.914a4.02 4.02 0 0 1 4.122-3.917 4.02 4.02 0 0 1 3.91 4.128l-.218 8.352c.51 2.466 2.11 4.29 4.48 4.352 2.588.068 4.645-1.981 4.713-4.573l.41-15.647a4.02 4.02 0 0 1 4.122-3.918 4.02 4.02 0 0 1 3.91 4.128l-.256 9.788c.51 2.466 2.11 4.29 4.48 4.352 2.588.068 4.645-1.981 4.713-4.573l.071-2.72a4.02 4.02 0 0 1 4.122-3.916 4.02 4.02 0 0 1 3.912 4.127l-.114 4.33c.51 2.466 2.11 4.29 4.48 4.352 2.588.068 4.645-1.981 4.713-4.573l.131-5.018a4.02 4.02 0 0 1 4.122-3.917 4.02 4.02 0 0 1 3.911 4.128l-.038 1.456c.51 2.466 2.11 4.29 4.48 4.352 2.588.068 4.645-1.98 4.713-4.572l.417-15.936a4.02 4.02 0 0 1 4.122-3.917 4.02 4.02 0 0 1 3.911 4.128l-.233 8.926c.51 2.466 2.11 4.29 4.48 4.352 2.587.068 4.645-1.98 4.712-4.572l-.046 1.757a4.02 4.02 0 0 1 4.122-3.917 4.02 4.02 0 0 1 3.912 4.128l-.222 8.471c.51 2.466 2.11 4.29 4.48 4.352 2.587.068 4.645-1.98 4.712-4.572l.225-8.585a4.02 4.02 0 0 1 4.122-3.918 4.02 4.02 0 0 1 3.911 4.128l-.206 7.897c.51 2.466 2.11 4.29 4.48 4.352 2.587.068 4.644-1.981 4.725-5.042.06-2.3 1.828-4.12 4.125-4.06 2.298.06 3.968 1.97 3.908 4.27l-.16 6.08c.483 3.512 2.645 4.326 4.676 4.38 2.588.067 4.935-1.994 5.008-4.796.058-2.221 1.661-3.981 3.88-3.923 2.218.058 3.726 1.9 3.668 4.121l-.32 12.183c.51 2.466 2.11 4.29 4.48 4.352 2.588.068 4.646-1.98 4.714-4.572l.432-16.51a4.02 4.02 0 0 1 4.122-3.918 4.02 4.02 0 0 1 3.911 4.128l-.219 8.352c.51 2.465 2.11 4.29 4.48 4.352 2.588.068 4.645-1.981 4.713-4.573l.41-15.648a4.02 4.02 0 0 1 4.122-3.917 4.02 4.02 0 0 1 3.91 4.128l-.255 9.788c.51 2.465 2.11 4.29 4.48 4.352 2.587.068 4.645-1.981 4.712-4.573l.072-2.72a4.02 4.02 0 0 1 4.121-3.917 4.02 4.02 0 0 1 3.912 4.128l-.114 4.33c.51 2.465 2.11 4.29 4.48 4.352 2.588.068 4.645-1.981 4.713-4.573l.131-5.018a4.02 4.02 0 0 1 4.122-3.917 4.02 4.02 0 0 1 3.912 4.127l-.039 1.457c.51 2.466 2.11 4.29 4.48 4.352 2.588.068 4.645-1.98 4.713-4.572l.417-15.936a4.02 4.02 0 0 1 4.122-3.917 4.02 4.02 0 0 1 3.912 4.127l-.234 8.927c.51 2.466 2.11 4.29 4.48 4.352 2.587.068 4.645-1.981 4.713-4.573l-.046 1.758a4.02 4.02 0 0 1 4.121-3.917 4.02 4.02 0 0 1 3.912 4.128l-.222 8.471c.51 2.466 2.11 4.29 4.48 4.352 2.587.068 4.645-1.98 4.713-4.572l.224-8.586a4.02 4.02 0 0 1 4.122-3.917 4.02 4.02 0 0 1 3.911 4.128l-.206 7.897c.51 2.465 2.11 4.29 4.48 4.352 2.587.068 4.645-1.981 4.725-5.042.06-2.3 1.828-4.12 4.125-4.06 2.298.06 3.968 1.97 3.908 4.27l-.16 6.08c.483 3.512 2.645 4.326 4.676 4.38 2.588.067 4.935-1.994 5.008-4.796.058-2.221 1.661-3.981 3.88-3.923 2.218.058 3.726 1.9 3.668 4.12l-.199 7.587c.51 2.466 2.11 4.29 4.48 4.352 2.588.068 4.645-1.981 4.709-4.42a4.02 4.02 0 0 1 4.122-3.916c2.218.058 3.97 1.906 3.903 4.435.51 2.465 2.11 4.29 4.48 4.352.37.01.896.156 1.578.439 2.878-.048 4.478-1.873 4.987-4.338-.066-2.53 1.685-4.377 3.903-4.435a4.02 4.02 0 0 1 4.122 3.917c.064 2.438 2.122 4.487 4.71 4.42 2.37-.063 3.97-1.887 4.48-4.353l-.2-7.586c-.058-2.222 1.45-4.063 3.669-4.121 2.218-.058 3.821 1.702 3.88 3.923.072 2.802 2.42 4.863 5.008 4.795 2.03-.053 4.193-.867 4.675-4.379l-.16-6.08c-.06-2.3 1.61-4.21 3.908-4.27 2.298-.06 4.065 1.76 4.126 4.06.08 3.06 2.137 5.11 4.725 5.042 2.37-.062 3.97-1.887 4.48-4.352l-.207-7.897a4.02 4.02 0 0 1 3.911-4.128 4.02 4.02 0 0 1 4.122 3.917l.225 8.586c.068 2.591 2.125 4.64 4.713 4.572 2.37-.062 3.97-1.886 4.48-4.352l-.222-8.471a4.02 4.02 0 0 1 3.911-4.128 4.02 4.02 0 0 1 4.122 3.917l-.046-1.758c.068 2.592 2.125 4.64 4.713 4.573 2.37-.062 3.97-1.886 4.48-4.352l-.234-8.927a4.02 4.02 0 0 1 3.911-4.127 4.02 4.02 0 0 1 4.122 3.917l.417 15.936c.068 2.591 2.126 4.64 4.713 4.572 2.37-.062 3.97-1.886 4.48-4.352l-.038-1.457a4.02 4.02 0 0 1 3.911-4.127 4.02 4.02 0 0 1 4.122 3.917l.131 5.018c.068 2.592 2.126 4.64 4.714 4.573 2.37-.062 3.97-1.887 4.48-4.352l-.114-4.33a4.02 4.02 0 0 1 3.911-4.128 4.02 4.02 0 0 1 4.122 3.918l.071 2.72c.068 2.59 2.125 4.64 4.713 4.572 2.37-.062 3.97-1.887 4.48-4.352l-.256-9.788a4.02 4.02 0 0 1 3.91-4.128 4.02 4.02 0 0 1 4.123 3.917l.41 15.648c.067 2.592 2.125 4.64 4.713 4.573 2.37-.062 3.97-1.887 4.48-4.352l-.22-8.352a4.02 4.02 0 0 1 3.912-4.128 4.02 4.02 0 0 1 4.122 3.917l.432 16.51c.068 2.592 2.125 4.641 4.713 4.573 2.37-.062 3.97-1.886 4.48-4.352l-.32-12.183c-.058-2.221 1.45-4.063 3.67-4.121 2.217-.058 3.82 1.702 3.878 3.923.074 2.802 2.42 4.863 5.009 4.795 2.03-.053 4.193-.867 4.675-4.379l-.16-6.08c-.06-2.3 1.61-4.21 3.908-4.27 2.298-.06 4.066 1.76 4.126 4.06.08 3.06 2.138 5.11 4.725 5.042 2.37-.062 3.97-1.886 4.48-4.352l-.207-7.897a4.02 4.02 0 0 1 3.911-4.128 4.02 4.02 0 0 1 4.122 3.918l.225 8.585c.068 2.591 2.125 4.64 4.713 4.572 2.37-.062 3.97-1.886 4.48-4.352l-.222-8.471a4.02 4.02 0 0 1 3.911-4.128 4.02 4.02 0 0 1 4.122 3.917l-.046-1.757c.068 2.591 2.125 4.64 4.713 4.572 2.37-.062 3.97-1.886 4.48-4.352l-.234-8.926a4.02 4.02 0 0 1 3.911-4.128 4.02 4.02 0 0 1 4.122 3.917l.417 15.936c.068 2.591 2.126 4.64 4.714 4.572 2.37-.062 3.97-1.886 4.48-4.352l-.039-1.456a4.02 4.02 0 0 1 3.911-4.128 4.02 4.02 0 0 1 4.122 3.917l.131 5.018c.068 2.592 2.126 4.64 4.714 4.573 2.37-.062 3.97-1.886 4.48-4.352l-.114-4.33a4.02 4.02 0 0 1 3.911-4.127 4.02 4.02 0 0 1 4.122 3.917l.071 2.72c.068 2.59 2.126 4.64 4.713 4.572 2.37-.062 3.97-1.886 4.48-4.352l-.256-9.788a4.02 4.02 0 0 1 3.91-4.128 4.02 4.02 0 0 1 4.123 3.918l.41 15.647c.067 2.592 2.125 4.64 4.713 4.573 2.37-.062 3.97-1.886 4.48-4.352l-.22-8.352a4.02 4.02 0 0 1 3.912-4.128 4.02 4.02 0 0 1 4.122 3.917l.312 11.914c.067 2.591 2.125 4.64 4.713 4.573 2.37-.063 3.97-1.887 4.48-4.353l-.2-7.586c-.057-2.221 1.45-4.063 3.67-4.12 2.217-.059 3.82 1.701 3.878 3.923.074 2.8 2.421 4.862 5.009 4.795 2.03-.054 4.193-.868 4.675-4.38l-.16-6.079c-.06-2.3 1.61-4.211 3.908-4.271 2.298-.06 4.066 1.76 4.126 4.06.08 3.061 2.138 5.11 4.725 5.042 2.37-.062 3.97-1.886 4.48-4.352l-.207-7.897a4.02 4.02 0 0 1 3.911-4.127 4.02 4.02 0 0 1 4.122 3.917l.225 8.585c.068 2.591 2.125 4.64 4.713 4.573 2.37-.062 3.97-1.887 4.48-4.353l-.222-8.471a4.02 4.02 0 0 1 3.911-4.128 4.02 4.02 0 0 1 4.122 3.918l-.046-1.758c.068 2.591 2.125 4.64 4.713 4.572 2.37-.062 3.97-1.886 4.48-4.352l-.234-8.926a4.02 4.02 0 0 1 3.911-4.128 4.02 4.02 0 0 1 4.122 3.917l.417 15.936c.068 2.592 2.126 4.64 4.714 4.573 2.37-.062 3.97-1.887 4.48-4.353l-.039-1.456a4.02 4.02 0 0 1 3.911-4.128 4.02 4.02 0 0 1 4.122 3.917l.132 5.019c.067 2.591 2.125 4.64 4.713 4.572 2.37-.062 3.97-1.886 4.48-4.352l-.114-4.33a4.02 4.02 0 0 1 3.911-4.127 4.02 4.02 0 0 1 4.122 3.917l.071 2.72c.068 2.591 2.126 4.64 4.714 4.572 2.37-.062 3.97-1.886 4.479-4.352l-.256-9.788a4.02 4.02 0 0 1 3.91-4.127 4.02 4.02 0 0 1 4.123 3.917l.41 15.648c.067 2.591 2.125 4.64 4.713 4.572 2.37-.062 3.97-1.886 4.48-4.352l-.22-8.352a4.02 4.02 0 0 1 3.912-4.127 4.02 4.02 0 0 1 4.122 3.917l.432 16.51c.068 2.591 2.125 4.64 4.713 4.573 2.37-.062 3.97-1.887 4.48-4.353l-.32-12.183c-.057-2.221 1.451-4.063 3.67-4.12 2.218-.059 3.82 1.701 3.878 3.923.074 2.801 2.421 4.862 5.009 4.795 2.03-.053 4.193-.867 4.675-4.38l-.16-6.079c-.06-2.3 1.61-4.21 3.908-4.271 2.298-.06 4.066 1.76 4.126 4.06.08 3.061 2.138 5.11 4.726 5.042 2.37-.062 3.97-1.886 4.479-4.352l-.207-7.897a4.02 4.02 0 0 1 3.911-4.127 4.02 4.02 0 0 1 4.122 3.917l.225 8.585c.068 2.592 2.126 4.64 4.713 4.573 2.37-.062 3.97-1.887 4.48-4.352l-.222-8.472a4.02 4.02 0 0 1 3.911-4.127 4.02 4.02 0 0 1 4.122 3.917l-.046-1.758c.068 2.591 2.126 4.64 4.713 4.573 2.37-.062 3.97-1.887 4.48-4.353l-.234-8.926a4.02 4.02 0 0 1 3.911-4.128 4.02 4.02 0 0 1 4.122 3.918l.418 15.935c.067 2.592 2.125 4.64 4.713 4.573 2.37-.062 3.97-1.887 4.48-4.352l-.039-1.457a4.02 4.02 0 0 1 3.911-4.127 4.02 4.02 0 0 1 4.122 3.917l.132 5.018c.068 2.591 2.125 4.64 4.713 4.572 2.37-.062 3.97-1.886 4.48-4.352l-.114-4.33a4.02 4.02 0 0 1 3.911-4.127 4.02 4.02 0 0 1 4.122 3.917l.071 2.72c.068 2.591 2.126 4.64 4.714 4.572 2.37-.062 3.97-1.886 4.48-4.352l-.257-9.788a4.02 4.02 0 0 1 3.911-4.127 4.02 4.02 0 0 1 4.122 3.917l.41 15.648c.068 2.591 2.125 4.64 4.713 4.572 2.37-.062 3.97-1.886 4.48-4.352l-.22-8.352a4.02 4.02 0 0 1 3.912-4.127 4.02 4.02 0 0 1 4.122 3.917l.432 16.51c.068 2.592 2.126 4.64 4.713 4.573 2.37-.062 3.97-1.887 4.48-4.352l-.196-7.49a4.02 4.02 0 0 1 3.911-4.127 4.02 4.02 0 0 1 4.122 3.917l.35 13.349c.067 2.592 2.125 4.64 4.713 4.573 2.37-.062 3.97-1.887 4.48-4.353l-.024-.882a4.02 4.02 0 0 1 3.911-4.127 4.02 4.02 0 0 1 4.122 3.917l.237 9.04c.068 2.592 2.125 4.64 4.713 4.573 2.37-.062 3.97-1.886 4.48-4.352l-.023-.882a4.02 4.02 0 0 1 3.91-4.128 4.02 4.02 0 0 1 4.123 3.917l.161 6.168c.068 2.591 2.126 4.64 4.713 4.572 2.37-.062 3.97-1.886 4.48-4.352l-.023-.882c-.058-2.221 1.693-4.07 4.662-4.127a4.02 4.02 0 0 1 3.912 4.127l-.024.882c.51 2.466 2.11 4.29 4.48 4.352 2.588.068 4.645-1.98 4.713-4.572l.162-6.168a4.02 4.02 0 0 1 4.122-3.917 4.02 4.02 0 0 1 3.91 4.128l-.022.882c.51 2.466 2.11 4.29 4.48 4.352 2.587.068 4.645-1.981 4.712-4.573l.237-9.04a4.02 4.02 0 0 1 4.122-3.917 4.02 4.02 0 0 1 3.911 4.127l-.023.882c.51 2.466 2.11 4.29 4.48 4.353 2.587.067 4.645-1.981 4.713-4.573l.35-13.35a4.02 4.02 0 0 1 4.121-3.916 4.02 4.02 0 0 1 3.912 4.127l-.197 7.49c.51 2.465 2.11 4.29 4.48 4.352 2.588.067 4.645-1.981 4.713-4.573l.433-16.51a4.02 4.02 0 0 1 4.121-3.917 4.02 4.02 0 0 1 3.912 4.127l-.219 8.352c.51 2.466 2.11 4.29 4.48 4.352 2.587.068 4.645-1.98 4.713-4.572l.41-15.648a4.02 4.02 0 0 1 4.121-3.917 4.02 4.02 0 0 1 3.912 4.127l-.257 9.788c.51 2.466 2.11 4.29 4.48 4.352 2.588.068 4.645-1.98 4.713-4.572l.071-2.72a4.02 4.02 0 0 1 4.122-3.917 4.02 4.02 0 0 1 3.911 4.127l-.113 4.33c.51 2.466 2.11 4.29 4.48 4.352 2.587.068 4.645-1.98 4.713-4.572l.131-5.018a4.02 4.02 0 0 1 4.122-3.917 4.02 4.02 0 0 1 3.911 4.127l-.038 1.457c.51 2.465 2.11 4.29 4.48 4.352 2.587.068 4.645-1.981 4.713-4.573l.417-15.935a4.02 4.02 0 0 1 4.122-3.918 4.02 4.02 0 0 1 3.911 4.128l-.234 8.926c.51 2.466 2.11 4.29 4.48 4.353 2.588.067 4.645-1.982 4.713-4.573l-.046 1.758a4.02 4.02 0 0 1 4.122-3.917 4.02 4.02 0 0 1 3.911 4.127l-.222 8.472c.51 2.465 2.11 4.29 4.48 4.352 2.588.068 4.645-1.981 4.713-4.573l.225-8.585a4.02 4.02 0 0 1 4.122-3.917 4.02 4.02 0 0 1 3.911 4.127l-.207 7.897c.51 2.466 2.11 4.29 4.48 4.352 2.588.068 4.645-1.98 4.725-5.041.06-2.3 1.829-4.121 4.126-4.061 2.297.06 3.968 1.97 3.907 4.271l-.159 6.08c.483 3.512 2.645 4.326 4.675 4.379a4.92 4.92 0 0 0 5.009-4.795c.058-2.222 1.66-3.982 3.88-3.924 2.217.058 3.726 1.9 3.668 4.121l-.32 12.183c.51 2.466 2.11 4.29 4.48 4.353 2.588.067 4.645-1.982 4.713-4.573l.433-16.51a4.02 4.02 0 0 1 4.122-3.917 4.02 4.02 0 0 1 3.91 4.127l-.218 8.352c.51 2.466 2.11 4.29 4.48 4.352 2.587.068 4.645-1.981 4.713-4.572l.41-15.648a4.02 4.02 0 0 1 4.121-3.917 4.02 4.02 0 0 1 3.912 4.127l-.257 9.788c.51 2.466 2.11 4.29 4.48 4.352 2.588.068 4.645-1.981 4.713-4.572l.071-2.72a4.02 4.02 0 0 1 4.122-3.917 4.02 4.02 0 0 1 3.911 4.127l-.113 4.33c.51 2.466 2.11 4.29 4.48 4.352 2.587.068 4.645-1.981 4.713-4.572l.131-5.019a4.02 4.02 0 0 1 4.122-3.917 4.02 4.02 0 0 1 3.911 4.128l-.038 1.456c.51 2.466 2.11 4.29 4.48 4.353 2.588.067 4.645-1.981 4.713-4.573l.417-15.936a4.02 4.02 0 0 1 4.122-3.917 4.02 4.02 0 0 1 3.911 4.128l-.233 8.926c.51 2.466 2.11 4.29 4.48 4.352 2.587.068 4.644-1.98 4.712-4.572l-.046 1.758a4.02 4.02 0 0 1 4.122-3.918 4.02 4.02 0 0 1 3.911 4.128l-.221 8.471c.51 2.466 2.11 4.29 4.48 4.353 2.587.067 4.644-1.982 4.712-4.573l.225-8.585a4.02 4.02 0 0 1 4.122-3.917 4.02 4.02 0 0 1 3.911 4.127l-.207 7.897c.51 2.466 2.11 4.29 4.48 4.352 2.588.068 4.645-1.981 4.726-5.041.06-2.301 1.828-4.121 4.125-4.061 2.298.06 3.968 1.97 3.908 4.271l-.16 6.08c.483 3.511 2.645 4.325 4.676 4.379 2.587.067 4.935-1.994 5.008-4.795.058-2.222 1.66-3.982 3.88-3.924 2.217.058 3.726 1.9 3.668 4.121l-.199 7.586c.51 2.466 2.11 4.29 4.48 4.353 2.587.067 4.645-1.982 4.713-4.573l.312-11.914a4.02 4.02 0 0 1 4.122-3.917 4.02 4.02 0 0 1 3.91 4.128l-.218 8.352c.51 2.466 2.11 4.29 4.48 4.352 2.588.068 4.645-1.981 4.713-4.573l.41-15.647a4.02 4.02 0 0 1 4.122-3.918 4.02 4.02 0 0 1 3.91 4.128l-.256 9.788c.51 2.466 2.11 4.29 4.48 4.352 2.588.068 4.645-1.981 4.713-4.573l.071-2.72a4.02 4.02 0 0 1 4.122-3.916 4.02 4.02 0 0 1 3.912 4.127l-.114 4.33c.51 2.466 2.11 4.29 4.48 4.352 2.588.068 4.645-1.981 4.713-4.573l.131-5.018a4.02 4.02 0 0 1 4.122-3.917 4.02 4.02 0 0 1 3.911 4.128l-.038 1.456c.51 2.466 2.11 4.29 4.48 4.352 2.588.068 4.645-1.98 4.713-4.572l.417-15.936a4.02 4.02 0 0 1 4.122-3.917 4.02 4.02 0 0 1 3.911 4.128l-.233 8.926c.51 2.466 2.11 4.29 4.48 4.352 2.587.068 4.645-1.98 4.712-4.572l-.046 1.757a4.02 4.02 0 0 1 4.122-3.917 4.02 4.02 0 0 1 3.912 4.128l-.222 8.471c.51 2.466 2.11 4.29 4.48 4.352 2.587.068 4.645-1.98 4.712-4.572l.225-8.585a4.02 4.02 0 0 1 4.122-3.918 4.02 4.02 0 0 1 3.911 4.128l-.206 7.897c.51 2.466 2.11 4.29 4.48 4.352 2.587.068 4.644-1.981 4.725-5.042.06-2.3 1.828-4.12 4.125-4.06 2.298.06 3.968 1.97 3.908 4.27l-.16 6.08c.483 3.512 2.645 4.326 4.676 4.38 2.588.067 4.935-1.994 5.008-4.796.058-2.221 1.661-3.981 3.88-3.923 2.218.058 3.726 1.9 3.668 4.121l-.32 12.183c.51 2.466 2.11 4.29 4.48 4.352 2.588.068 4.646-1.98 4.714-4.572l.432-16.51a4.02 4.02 0 0 1 4.122-3.918 4.02 4.02 0 0 1 3.911 4.128l-.219 8.352c.51 2.465 2.11 4.29 4.48 4.352 2.588.068 4.645-1.981 4.713-4.573l.41-15.648a4.02 4.02 0 0 1 4.122-3.917 4.02 4.02 0 0 1 3.91 4.128l-.255 9.788c.51 2.465 2.11 4.29 4.48 4.352 2.587.068 4.644-1.981 4.712-4.573l.072-2.72a4.02 4.02 0 0 1 4.121-3.917 4.02 4.02 0 0 1 3.912 4.128l-.114 4.33c.51 2.465 2.11 4.29 4.48 4.352 2.588.068 4.645-1.981 4.713-4.573l.131-5.018a4.02 4.02 0 0 1 4.122-3.917 4.02 4.02 0 0 1 3.912 4.127l-.039 1.457c.51 2.466 2.11 4.29 4.48 4.352 2.588.068 4.645-1.98 4.713-4.572l.417-15.936a4.02 4.02 0 0 1 4.122-3.917 4.02 4.02 0 0 1 3.912 4.127l-.234 8.927c.51 2.466 2.11 4.29 4.48 4.352 2.587.068 4.645-1.981 4.713-4.573l-.046 1.758a4.02 4.02 0 0 1 4.121-3.917 4.02 4.02 0 0 1 3.912 4.128l-.222 8.471c.51 2.466 2.11 4.29 4.48 4.352 2.587.068 4.645-1.98 4.713-4.572l.224-8.586a4.02 4.02 0 0 1 4.122-3.917 4.02 4.02 0 0 1 3.911 4.128l-.206 7.897c.51 2.465 2.11 4.29 4.48 4.352 2.587.068 4.645-1.981 4.725-5.042.06-2.3 1.828-4.12 4.125-4.06 2.298.06 3.968 1.97 3.908 4.27l-.16 6.08c.483 3.512 2.645 4.326 4.676 4.38 2.588.067 4.935-1.994 5.008-4.796.058-2.221 1.661-3.981 3.88-3.923 2.218.058 3.726 1.9 3.668 4.12l-.199 7.587c.51 2.466 2.11 4.29 4.48 4.352 2.588.068 4.645-1.981 4.709-4.42a4.02 4.02 0 0 1 4.122-3.916c2.218.058 3.97 1.906 3.903 4.435.51 2.465 2.11 4.29 4.48 4.352.37.01.896 12.02 1.578 36.029H0V52.308z" fill="#FCE579" fill-rule="evenodd"/></svg>