<svg width="12" height="12" viewBox="0 0 12 12" fill="none" xmlns="http://www.w3.org/2000/svg">
<path fill-rule="evenodd" clip-rule="evenodd" d="M3.5262 0.036C4.1664 0.0072 4.3704 0 6 0C7.6296 0 7.8336 0.0072 8.4738 0.036C9.1122 0.0654 9.5484 0.1668 9.93 0.315C10.3248 0.4686 10.6596 0.6732 10.9932 1.0068C11.3268 1.3404 11.5314 1.6752 11.685 2.07C11.8332 2.4516 11.9346 2.8878 11.964 3.5262C11.9928 4.1664 12 4.3704 12 6C12 7.6296 11.9928 7.8336 11.964 8.4738C11.9346 9.1122 11.8332 9.5484 11.685 9.93C11.5314 10.3248 11.3268 10.6596 10.9932 10.9932C10.6596 11.3268 10.3248 11.5314 9.93 11.685C9.5484 11.8332 9.1122 11.9346 8.4738 11.964C7.8336 11.9934 7.6296 12 6 12C4.3704 12 4.1664 11.9934 3.5262 11.964C2.8878 11.9346 2.4516 11.8332 2.07 11.685C1.6752 11.5314 1.3404 11.3268 1.0068 10.9932C0.6732 10.6596 0.4686 10.3248 0.315 9.93C0.1668 9.5484 0.0654 9.1122 0.036 8.4738C0.0066 7.8336 0 7.6296 0 6C0 4.3704 0.0066 4.1664 0.036 3.5262C0.0654 2.8878 0.1668 2.4516 0.315 2.07C0.4686 1.6752 0.6732 1.3404 1.0068 1.0068C1.3404 0.6732 1.6752 0.4686 2.07 0.315C2.4516 0.1668 2.8878 0.0654 3.5262 0.036ZM8.42446 1.11602C7.79146 1.08722 7.60186 1.08122 5.99986 1.08122C4.39785 1.08122 4.20825 1.08722 3.57525 1.11602C2.99025 1.14302 2.67285 1.24022 2.46105 1.32242C2.18145 1.43162 1.98105 1.56182 1.77105 1.77122C1.56165 1.98122 1.43145 2.18162 1.32225 2.46122C1.24005 2.67302 1.14285 2.99042 1.11585 3.57542C1.08705 4.20842 1.08105 4.39802 1.08105 6.00002C1.08105 7.60202 1.08705 7.79162 1.11585 8.42462C1.14285 9.00962 1.24005 9.32702 1.32225 9.53882C1.43145 9.81842 1.56165 10.0188 1.77105 10.2288C1.98105 10.4382 2.18145 10.5684 2.46105 10.6776C2.67285 10.7598 2.99025 10.857 3.57525 10.884C4.20765 10.9128 4.39785 10.9188 5.99986 10.9188C7.60186 10.9188 7.79206 10.9128 8.42446 10.884C9.00946 10.857 9.32685 10.7598 9.53866 10.6776C9.81826 10.5684 10.0187 10.4382 10.2287 10.2288C10.4381 10.0188 10.5683 9.81842 10.6775 9.53882C10.7597 9.32702 10.8569 9.00962 10.8839 8.42462C10.9127 7.79162 10.9187 7.60202 10.9187 6.00002C10.9187 4.39802 10.9127 4.20842 10.8839 3.57542C10.8569 2.99042 10.7597 2.67302 10.6775 2.46122C10.5683 2.18162 10.4381 1.98122 10.2287 1.77122C10.0187 1.56182 9.81826 1.43162 9.53866 1.32242C9.32685 1.24022 9.00946 1.14302 8.42446 1.11602ZM2.91882 6.00017C2.91882 4.29857 4.29822 2.91917 5.99982 2.91917C7.70142 2.91917 9.08082 4.29857 9.08082 6.00017C9.08082 7.70177 7.70142 9.08117 5.99982 9.08117C4.29822 9.08117 2.91882 7.70177 2.91882 6.00017ZM4.00021 6.00022C4.00021 7.10482 4.89541 8.00002 6.00001 8.00002C7.10461 8.00002 7.99981 7.10482 7.99981 6.00022C7.99981 4.89562 7.10461 3.99982 6.00001 3.99982C4.89541 3.99982 4.00021 4.89562 4.00021 6.00022ZM9.38203 3.65273C9.75482 3.65273 10.057 3.35053 10.057 2.97773C10.057 2.60494 9.75482 2.30273 9.38203 2.30273C9.00924 2.30273 8.70703 2.60494 8.70703 2.97773C8.70703 3.35053 9.00924 3.65273 9.38203 3.65273Z" fill="#333333"/>
</svg>
