<svg width="101" height="34" viewBox="0 0 101 34" fill="none" xmlns="http://www.w3.org/2000/svg">
<path d="M19.3361 6.26068C19.4911 6.26068 19.5686 6.33776 19.5686 6.49193V8.84541C19.5686 8.99958 19.4911 9.07666 19.3361 9.07666H3.0945V12.5683H19.3361C19.4911 12.5683 19.5686 12.6454 19.5686 12.7996V15.1519C19.5686 15.306 19.4911 15.3831 19.3361 15.3831H0.232542C0.0775139 15.3831 0 15.306 0 15.1519V0.231253C0 0.0770842 0.0775139 0 0.232542 0H19.3361C19.4911 0 19.5686 0.0770842 19.5686 0.231253V2.58473C19.5686 2.7389 19.4911 2.81598 19.3361 2.81598H3.0945V6.26188H19.3361V6.26068Z" fill="#FAB221"/>
<path d="M40.9138 0.000244141C41.0689 0.000244141 41.1464 0.0773283 41.1464 0.231497V15.1521C41.1464 15.3063 41.0689 15.3834 40.9138 15.3834H38.2844C38.1294 15.3834 38.0519 15.3063 38.0519 15.1521V5.99956C38.0519 6.10676 38.0361 6.18384 37.9744 6.29224L32.8693 15.2292C32.8076 15.3364 32.7143 15.3834 32.5908 15.3834H29.8681C29.7446 15.3834 29.6513 15.3376 29.5895 15.2292L24.5003 6.29224C24.4688 6.23081 24.4542 6.18504 24.4385 6.13807V15.1521C24.4385 15.3063 24.361 15.3834 24.206 15.3834H21.5765C21.4215 15.3834 21.344 15.3063 21.344 15.1521V0.231497C21.344 0.0773283 21.4215 0.000244141 21.5765 0.000244141H24.206C24.2992 0.000244141 24.3755 0.0315596 24.407 0.092986L31.244 11.7845L38.0834 0.092986C38.1148 0.0315596 38.1912 0.000244141 38.2844 0.000244141H40.9138Z" fill="#FAB221"/>
<path d="M62.5718 0.000244141C62.7269 0.000244141 62.8044 0.0773283 62.8044 0.231497V15.1521C62.8044 15.3063 62.7269 15.3834 62.5718 15.3834H59.9412C59.7862 15.3834 59.7087 15.3063 59.7087 15.1521V5.99956C59.7087 6.10676 59.6929 6.18384 59.6311 6.29224L54.5261 15.2292C54.4643 15.3364 54.3711 15.3834 54.2475 15.3834H51.5249C51.4013 15.3834 51.3081 15.3376 51.2463 15.2292L46.157 6.29224C46.1255 6.23081 46.111 6.18504 46.0952 6.13807V15.1521C46.0952 15.3063 46.0177 15.3834 45.8627 15.3834H43.2333C43.0782 15.3834 43.0007 15.3063 43.0007 15.1521V0.231497C43.0007 0.0773283 43.0782 0.000244141 43.2333 0.000244141H45.8627C45.956 0.000244141 46.0323 0.0315596 46.0637 0.092986L52.9007 11.7845L59.7401 0.092986C59.7716 0.0315596 59.8479 0.000244141 59.9412 0.000244141H62.5718Z" fill="#FAB221"/>
<path d="M82.1223 4.61519C81.983 4.61519 81.9055 4.53811 81.8898 4.38394C81.7202 3.52276 81.3024 2.81455 80.3589 2.81455H68.7572C67.8598 2.81455 67.2566 3.70704 67.2566 4.49113C67.2566 5.3222 67.8295 6.30622 68.7572 6.30622H80.3589C82.9725 6.30622 84.9843 8.33691 84.9843 10.6446C84.9843 13.0439 83.1591 15.3829 80.3589 15.3829H68.7572C66.1278 15.3829 64.2711 13.4606 64.1161 10.9987C64.1161 10.8446 64.1936 10.7675 64.3486 10.7675H66.978C67.1331 10.7675 67.2106 10.8446 67.2251 10.9987C67.2566 11.7684 67.7665 12.5681 68.756 12.5681H80.3577C81.2854 12.5681 81.9358 11.7069 81.9358 10.8458C81.9358 9.95327 81.3012 9.0921 80.3577 9.0921H68.7572C66.2199 9.0921 64.1318 7.0313 64.1318 4.66216C64.1318 2.27737 66.1738 0.000976562 68.7572 0.000976562H80.3589C82.757 0.000976562 84.845 1.9859 85 4.38514C85 4.53931 84.9225 4.61639 84.7675 4.61639H82.1223V4.61519Z" fill="#FAB221"/>
<path fill-rule="evenodd" clip-rule="evenodd" d="M83.3389 20.5551C83.5575 15.6174 87.7115 11.7876 92.5837 12.0091C97.4872 12.2307 101.266 16.4404 100.985 21.3463C100.767 26.284 96.6127 30.1138 91.7404 29.8922C90.5224 29.8606 89.3668 29.5441 88.3361 29.0377L84.8381 30.9051L86.0874 27.4551C84.2759 25.7459 83.214 23.2454 83.3389 20.5551ZM93.9579 19.9853C94.2702 20.9032 95.6445 21.0298 96.1442 20.2069C96.4565 19.6688 96.3316 19.289 96.2691 19.0991C96.2691 19.0991 95.2385 16.0922 92.1464 16.0922C89.0544 16.0922 88.0237 19.0991 88.0237 19.0991C87.9613 19.289 87.8363 19.6688 88.1487 20.2069C88.6484 21.0298 90.0226 20.9032 90.3349 19.9853C90.3349 19.9853 90.7097 18.5926 92.1464 18.5926C93.5831 18.6243 93.9579 19.9853 93.9579 19.9853Z" fill="#8F8095"/>
<path fill-rule="evenodd" clip-rule="evenodd" d="M19 29.6073C19 30.3036 19.531 30.8417 20.2181 30.8417H22.7791C25.715 30.8417 27.87 28.7843 27.87 25.9673V25.9357C27.87 23.1187 25.7462 21.093 22.7791 21.093H20.2181C19.531 21.093 19 21.6311 19 22.3274V29.6073ZM25.3402 25.9674C25.3402 27.4866 24.3095 28.5311 22.7791 28.5311H21.4361V23.3403H22.7791C24.3095 23.3403 25.3402 24.3848 25.3402 25.9357V25.9674Z" fill="white" fill-opacity="0.5"/>
<path fill-rule="evenodd" clip-rule="evenodd" d="M28.526 25.9991C28.526 28.8477 30.7123 31 33.6169 31C36.4903 31 38.739 28.7844 38.739 25.9674V25.9358C38.739 23.0871 36.5528 20.9348 33.6481 20.9348C30.7747 20.9348 28.526 23.1504 28.526 25.9674V25.9991ZM31.0871 25.9358C31.0871 24.3848 32.1802 23.2454 33.6169 23.2454C35.0848 23.2454 36.178 24.4165 36.178 25.9674V25.9991C36.178 27.55 35.0848 28.6895 33.6481 28.6895C32.1802 28.6895 31.0871 27.5183 31.0871 25.9674V25.9358Z" fill="white" fill-opacity="0.5"/>
<path fill-rule="evenodd" clip-rule="evenodd" d="M39.7697 29.6706C39.7697 30.3669 40.3006 30.905 40.9877 30.905C41.6748 30.905 42.237 30.3669 42.237 29.7022V28.0563H43.5488C45.9537 28.0563 47.4841 26.6953 47.4841 24.5747V24.543C47.4841 22.454 46.0162 21.093 43.7362 21.093H40.9877C40.3006 21.093 39.7697 21.6311 39.7697 22.3274V29.6706ZM44.9855 24.5747C44.9855 25.3027 44.4545 25.7775 43.6113 25.7775V25.7458H42.2058V23.3403H43.5488C44.0797 23.3403 44.9855 23.4986 44.9855 24.5431V24.5747Z" fill="white" fill-opacity="0.5"/>
<path fill-rule="evenodd" clip-rule="evenodd" d="M48.2336 29.6706C48.2336 30.3669 48.7646 30.905 49.4517 30.905C50.1388 30.905 50.6698 30.3669 50.701 29.7022V28.0563H52.0128C54.4177 28.0563 55.9481 26.6953 55.9481 24.5747V24.543C55.9481 22.454 54.4801 21.093 52.2002 21.093H49.4517C48.7646 21.093 48.2336 21.6311 48.2336 22.3274V29.6706ZM53.4495 24.5747C53.4495 25.3027 52.9185 25.7775 52.0753 25.7775V25.7458H50.6698V23.3403H52.0128C52.5437 23.3403 53.4495 23.4986 53.4495 24.5431V24.5747Z" fill="white" fill-opacity="0.5"/>
<path fill-rule="evenodd" clip-rule="evenodd" d="M57.8844 30.8417C57.1973 30.8417 56.6664 30.3036 56.6664 29.6073V22.2325C56.6664 21.5361 57.1973 20.998 57.8844 20.998C58.5716 20.998 59.1025 21.5361 59.1025 22.2325V28.5311H62.6318C63.2564 28.5311 63.7562 29.0375 63.7562 29.6706C63.7562 30.3036 63.2564 30.81 62.6318 30.81H57.8844V30.8417Z" fill="white" fill-opacity="0.5"/>
<path fill-rule="evenodd" clip-rule="evenodd" d="M65.6926 30.8417C65.0054 30.8417 64.4745 30.3036 64.4745 29.6073V22.3274C64.4745 21.6311 65.0054 21.093 65.6926 21.093H70.8147C71.4393 21.093 71.9391 21.5994 71.9391 22.2325C71.9391 22.8655 71.4393 23.3403 70.8147 23.3403H66.9419V24.7962H70.2213C70.8459 24.7962 71.3456 25.3027 71.3456 25.9357C71.3456 26.5687 70.8459 27.0752 70.2213 27.0752H66.9419V28.5944H70.9084C71.533 28.5944 72.0328 29.1008 72.0328 29.7339C72.0328 30.3669 71.533 30.8417 70.9084 30.8417H65.6926Z" fill="white" fill-opacity="0.5"/>
<path fill-rule="evenodd" clip-rule="evenodd" d="M78.6228 30.3036C78.9351 30.7151 79.3099 30.905 79.7784 30.905C80.3406 30.905 80.9652 30.4619 80.934 29.7655C80.934 29.3541 80.7466 29.1008 80.5592 28.8476L79.3412 27.3284C80.4655 26.7586 81.0589 25.7774 81.0589 24.4164V24.3848C81.0589 23.4669 80.7778 22.6756 80.2157 22.1059C79.5598 21.4412 78.5603 21.093 77.3735 21.093H74.1878C73.5007 21.093 72.9697 21.6311 72.9697 22.3274V29.7022C72.9697 30.3986 73.5007 30.9366 74.1878 30.9366C74.8749 30.9366 75.4059 30.3986 75.4059 29.7022V27.8664H76.7176L78.6228 30.3036ZM78.5916 24.4797C78.5916 25.1761 78.0919 25.5876 77.2486 25.5876H75.4059V23.3403H77.2174C77.842 23.3403 78.5916 23.5302 78.5916 24.4481V24.4797Z" fill="white" fill-opacity="0.5"/>
<path d="M3.06875 30.5984C2.65163 30.5984 2.26928 30.4991 1.92169 30.3005C1.5741 30.1019 1.28609 29.8301 1.05767 29.4852L0.685254 30.4259H0V20H1.22154V20.1097C1.16195 20.1725 1.12223 20.2404 1.10237 20.3136C1.09243 20.3867 1.08747 20.5121 1.08747 20.6898V24.3585C1.30596 23.9718 1.59893 23.6634 1.96638 23.4335C2.34377 23.2036 2.72612 23.0886 3.11344 23.0886C3.93773 23.0886 4.60809 23.3969 5.12451 24.0136C5.65086 24.6198 5.91404 25.5396 5.91404 26.7729C5.91404 27.63 5.775 28.3407 5.49693 28.9051C5.21886 29.4696 4.86133 29.8929 4.42436 30.1751C3.99731 30.4573 3.54544 30.5984 3.06875 30.5984ZM2.93467 29.595C3.25247 29.595 3.55538 29.5114 3.84338 29.3441C4.13139 29.1664 4.36477 28.8738 4.54353 28.4662C4.72229 28.0585 4.81168 27.515 4.81168 26.8356C4.81168 25.8845 4.63788 25.1842 4.29029 24.7348C3.95262 24.2853 3.51069 24.0606 2.96447 24.0606C2.41825 24.0606 1.96638 24.3219 1.60886 24.8445C1.26126 25.3567 1.08747 26.0308 1.08747 26.867C1.08747 27.6927 1.22651 28.3564 1.50458 28.8581C1.79258 29.3494 2.26928 29.595 2.93467 29.595Z" fill="white" fill-opacity="0.5"/>
<path d="M8.4465 33.1539C7.8109 33.1539 7.28951 32.9501 6.88233 32.5425L7.34414 31.7742L7.43352 31.6331L7.5229 31.6958C7.54276 31.7795 7.57752 31.8474 7.62718 31.8997C7.67683 31.9624 7.77118 32.0408 7.91021 32.1348C8.08898 32.1975 8.2876 32.2289 8.50609 32.2289C8.89341 32.2289 9.19631 32.0826 9.41479 31.7899C9.63328 31.5077 9.83687 31.0687 10.0256 30.4729L7.23986 23.261H8.35712L10.4725 28.9992L11.3663 26.1144C11.5152 25.6337 11.6592 25.1581 11.7983 24.6877C11.9373 24.2174 12.0317 23.7418 12.0813 23.261H13.1539C13.0844 23.7418 12.9751 24.2279 12.8262 24.7191C12.6772 25.2103 12.5183 25.7016 12.3495 26.1928L10.6512 31.2412C10.4129 31.9415 10.105 32.4327 9.72763 32.7149C9.36017 33.0076 8.93313 33.1539 8.4465 33.1539Z" fill="white" fill-opacity="0.5"/>
</svg>
