<svg width="12" height="10" viewBox="0 0 12 10" fill="none" xmlns="http://www.w3.org/2000/svg">
<path fill-rule="evenodd" clip-rule="evenodd" d="M10.7719 2.48961C11.2528 2.13229 11.6715 1.6891 12 1.18276C11.5559 1.38386 11.0831 1.52014 10.5871 1.58052C11.095 1.26918 11.4851 0.774472 11.6699 0.185031C11.1928 0.47255 10.6682 0.683619 10.1046 0.798294C9.65673 0.307462 9.0181 0 8.30815 0C6.94876 0 5.8471 1.13179 5.8471 2.52507C5.8471 2.72229 5.86817 2.91618 5.91247 3.09789C3.86258 2.99485 2.04881 1.98881 0.83584 0.463132C0.624584 0.834303 0.503017 1.26918 0.503017 1.73121C0.503017 2.60872 0.937956 3.37876 1.59766 3.83247C1.19298 3.81807 0.814768 3.70672 0.481945 3.51726V3.55105C0.481945 4.77148 1.32967 5.79081 2.45889 6.02349C2.25142 6.08055 2.03206 6.11213 1.80891 6.11213C1.64899 6.11213 1.49716 6.09606 1.3475 6.0667C1.66087 7.06775 2.56803 7.80012 3.64376 7.81951C2.80306 8.49593 1.74138 8.89923 0.587303 8.89923C0.389554 8.89923 0.193967 8.88981 0 8.86488C1.09194 9.5823 2.38379 10 3.77452 10C8.30275 10 10.7795 6.15091 10.7795 2.81757C10.7795 2.70899 10.7773 2.59986 10.7719 2.48961Z" fill="#333333"/>
</svg>
